# xmcd
# 
# Track frame offsets:
#     150
#     13465
#     33196
#     49818
#     67074
#     80416
#     103410
#     123087
#     150806
#     169242
#     182207
#     212798
#     228729
# 
# Disc length: 3287
# 
# Revision: 3
# Processed by: cddbd v1.5.2PL0 Copyright (c) Steve Scherf et al.
# Submitted via: fre:ac v1.1beta2
# 
DISCID=b20cd50d
DTITLE=Various Artist - W hołdzie Tadeuszowi Nalepie
DYEAR=2008
DGENRE=Blues
TTITLE0=Różni wykonawcy - Maciej Balcar, Jerzy Styczyński - Nauczyłem sie niewiary
TTITLE1=Różni wykonawcy - Andrzej Nowak - W pochodzie codzienności
TTITLE2=Różni wykonawcy - Andrzej Nowak - Kiedy byłem małym chłopcem
TTITLE3=Różni wykonawcy - Marek "Georgia" Pieczara, Marek Raduli - Co to za człowiek
TTITLE4=Różni wykonawcy - Marek "Georgia" Pieczara, Marek Raduli - Biegniesz tu
TTITLE5=Różni wykonawcy - Maciej Balcar, Jerzy Styczyński - Modlitwa
TTITLE6=Różni wykonawcy - Piotr Cugowski, Dariusz Kozakiewicz - Pomaluj moje sny
TTITLE7=Różni wykonawcy - Maciej Silski, Janusz Borysewicz - Piękno
TTITLE8=Różni wykonawcy - Janusz Borysewicz - Pożegnalny blues
TTITLE9=Różni wykonawcy - Pawel Kukiz, Piotr Nalepa - Takie moje miasto jest
TTITLE10=Różni wykonawcy - Leszek Cichonski - Dbaj o miłosc
TTITLE11=Różni wykonawcy - Pawel Kukiz, Dariusz Kozakiewicz - Oni zaraz przyjdą tu
TTITLE12=Różni wykonawcy - Nie-Bo, Piotr Nalepa - Czarno-czarny film
EXTD=YEAR: 2008
EXTT0=
EXTT1=
EXTT2=
EXTT3=
EXTT4=
EXTT5=
EXTT6=
EXTT7=
EXTT8=
EXTT9=
EXTT10=
EXTT11=
EXTT12=
PLAYORDER=
